<?xml version="1.0" standalone="yes"?>

<svg version="1.1" viewBox="0.0 0.0 960.0 720.0" fill="none" stroke="none" stroke-linecap="square" stroke-miterlimit="10" clip-path="url(#p.0)" xmlns="http://www.w3.org/2000/svg" xmlns:xlink="http://www.w3.org/1999/xlink"><clipPath id="p.0"><path d="M0 0L960.0 0L960.0 720.0L0 720.0L0 0Z" clip-rule="nonzero"></path></clipPath><path d="M1.325305 1.3228346L958.23865 1.3228346L958.23865 720.0L1.325305 720.0Z" fill-rule="nonzero" fill="#274e13"></path><path d="M157.71779 343.49197Q144.10606 349.1466 115.61373 353.60504Q89.54383 357.73727 72.81756 357.73727Q44.55594 357.73727 44.55594 334.35754Q44.55594 336.20618 46.86301 299.88605Q49.8622 252.69162 49.8622 194.84038Q49.8622 188.64203 54.418667 184.29231Q58.975132 179.9426 65.89635 179.9426Q72.81756 179.9426 77.4317 184.29231Q82.045845 188.64203 82.045845 194.84038Q82.045845 252.80035 78.9313 301.62595Q77.89312 310.32538 76.73958 328.26794Q104.07838 327.83298 146.87454 315.65378Q149.52768 314.89258 151.9501 314.89258Q159.21738 314.89258 163.71617 319.89474Q167.75354 324.3532 167.75354 329.8991Q167.75354 339.25098 157.71779 343.49197ZM226.92992 354.04004Q205.58951 354.04004 190.2475 340.22968Q173.40587 325.1144 172.59839 299.88605Q171.79092 275.85385 186.55618 257.04132Q204.08992 234.85777 235.35074 234.85777Q258.42145 234.85777 272.03317 252.25664Q284.26065 267.91562 284.26065 291.07788Q284.26065 316.30624 269.95682 334.14008Q253.92265 354.04004 226.92992 354.04004ZM233.85114 263.56592Q219.66264 263.45715 211.47255 275.74512Q204.55133 286.07568 204.55133 299.88605Q204.55133 312.9352 212.39537 319.89474Q218.62447 325.44064 226.92992 325.44064Q236.96568 325.44064 244.34831 319.0248Q252.76912 311.52155 253.34589 298.68988Q254.84549 263.67465 233.85114 263.56592ZM451.17725 251.82167Q439.06512 294.4489 426.83765 329.24664Q423.37704 339.0335 415.533 349.36407Q409.99603 356.5411 400.76776 356.43237Q386.2332 356.21487 377.92773 330.00784Q374.8132 320.00348 370.5451 292.709Q368.12268 297.4937 367.54593 299.12485Q361.54755 312.60898 350.01218 340.99088Q348.28186 345.55807 344.82126 348.27664Q339.9764 355.56244 330.40207 355.88864Q324.98047 356.10614 318.98206 346.75424Q312.63763 337.2936 308.7156 322.39584Q305.13965 308.9117 297.64166 263.67465Q296.0267 253.88779 296.0267 248.3419Q296.0267 242.36104 300.81387 238.39192Q305.60104 234.4228 312.29156 234.4228Q324.74976 234.4228 327.63358 246.0583Q329.13318 252.1479 330.17136 261.06482Q331.5556 273.89648 331.90167 276.18008Q333.40128 284.66205 336.5158 303.90955Q345.05197 281.83472 356.12592 248.99435Q360.8554 234.85777 373.89038 234.85777Q386.6946 234.85777 390.732 250.6255Q393.6158 261.7173 396.84573 279.44238Q401.57523 305.21445 402.6134 310.10788Q403.65158 306.73685 420.7239 243.99219Q423.2617 234.64029 435.1431 234.64029Q441.71826 234.64029 446.73615 238.66377Q451.75403 242.68727 451.75403 248.66812Q451.75403 249.75555 451.17725 251.82167ZM561.9167 269.22055Q560.8785 285.85822 545.8825 285.85822Q531.34796 285.85822 531.34796 271.72162L530.77124 260.7386Q504.81665 264.65335 493.62738 285.85822L493.7427 340.5559Q493.7427 346.75424 489.24393 350.83212Q484.74515 354.90997 477.8239 354.90997Q470.672 354.90997 466.75 350.56024Q463.0587 346.6455 463.0587 340.5559L463.0587 269.32928Q463.0587 265.95825 463.28937 259.27057Q463.52008 252.58287 463.52008 249.21184Q463.52008 243.12224 467.38443 239.04437Q471.24878 234.96652 478.4007 234.96652Q491.20496 234.96652 493.62738 247.3632Q514.0449 233.00914 538.9613 233.00914Q562.03204 233.00914 562.03204 261.93475Q562.03204 267.48065 561.9167 269.22055ZM605.0589 216.91519Q597.6763 216.91519 592.25464 212.23924Q586.83307 207.5633 586.83307 200.82124Q586.83307 194.07918 592.25464 189.40323Q597.6763 184.72728 605.0589 184.72728Q612.4415 184.72728 617.8055 189.40323Q623.16943 194.07918 623.16943 200.82124Q623.16943 207.5633 617.8055 212.23924Q612.4415 216.91519 605.0589 216.91519ZM614.86395 296.62375Q614.86395 302.8221 615.2677 316.5237Q615.67145 330.2253 615.67145 336.42368Q615.67145 342.73077 611.17267 346.80862Q606.6739 350.88647 599.7526 350.88647Q592.8314 350.88647 588.33264 346.80862Q583.83386 342.73077 583.83386 336.42368Q583.83386 330.2253 583.4301 316.5237Q583.02637 302.8221 583.02637 296.62375Q583.02637 286.94565 584.17993 272.37408Q585.33344 257.80252 585.33344 248.12442Q585.33344 241.81732 589.8322 237.73946Q594.33105 233.6616 601.25226 233.6616Q608.17346 233.6616 612.67224 237.73946Q617.171 241.81732 617.171 248.12442Q617.171 257.80252 616.0175 272.37408Q614.86395 286.94565 614.86395 296.62375ZM726.1802 268.02438Q714.76013 268.02438 712.45306 258.99872Q707.8389 258.23752 702.9941 258.23752Q675.1939 258.23752 675.1939 265.41455Q675.1939 269.65552 691.92017 276.83255Q714.76013 286.72815 722.8349 292.27405Q739.56116 303.69205 739.56116 318.0461Q739.56116 336.7499 721.1046 346.428Q706.224 354.14877 684.53754 354.14877Q669.1955 354.14877 656.5066 349.6903Q639.20355 343.6007 639.20355 331.7477Q639.20355 320.87344 652.93066 320.87344Q658.2369 320.87344 668.27264 324.02698Q678.3084 327.1805 683.73004 327.1805Q707.1468 327.1805 707.26215 318.2636Q707.26215 312.7177 690.9973 305.97565Q667.2345 296.08005 660.54395 291.73032Q644.2791 280.96478 644.2791 265.5233Q644.2791 243.66595 668.8494 236.05394Q683.2686 231.59549 712.6838 231.59549Q724.2191 231.59549 729.7561 234.4228Q737.36945 238.2288 737.36945 248.45064Q737.36945 268.02438 726.1802 268.02438ZM818.11694 352.62637Q790.5474 352.62637 773.0137 340.22968Q753.6343 326.52808 753.6343 301.62595Q753.6343 274.11398 768.9763 255.08395Q786.04865 233.98784 815.0024 233.98784Q835.0739 233.98784 848.3396 240.07744Q865.758 248.12442 865.758 265.08832Q865.758 277.05002 851.56946 286.29318Q845.1097 290.53415 825.6149 298.68988L786.7408 314.89258Q792.2778 320.5472 800.12177 323.3745Q807.9658 326.20184 818.11694 326.20184Q833.57434 326.20184 844.3022 320.22098Q853.8765 314.89258 859.6442 314.89258Q871.641 314.89258 871.641 325.8756Q871.641 338.2723 852.37695 346.1018Q836.2275 352.62637 818.11694 352.62637ZM815.0024 260.30362Q804.27454 260.30362 796.6612 267.0457Q789.04785 273.78775 784.4337 287.27188Q797.4686 281.94345 810.38824 276.72382Q825.961 270.09048 835.1893 264.43585Q827.4606 260.30362 815.0024 260.30362Z" fill-rule="nonzero" fill="#ffffff" stroke="#ea9999" stroke-width="8.0" stroke-linejoin="round" stroke-linecap="butt"></path><path d="M264.40796 380.1714Q262.10086 388.10962 262.10086 393.98172Q262.10086 397.02652 261.46643 403.388Q260.83197 409.74945 260.83197 412.79425Q260.83197 423.12485 259.67844 443.45978Q258.5249 463.7947 258.5249 474.12527Q258.5249 482.0635 259.7938 497.83124Q261.06268 513.59894 261.06268 521.5372Q261.06268 527.51807 256.5639 531.65027Q252.06511 535.78253 245.3746 535.78253Q238.56874 535.78253 233.60854 531.70465Q228.64835 527.6268 228.64835 521.7547Q228.64835 513.81647 227.89854 497.93997Q227.14874 482.0635 227.14874 474.12527Q227.14874 467.9269 227.37946 463.14224Q209.26894 463.90344 182.62227 468.47064Q160.47438 472.27664 138.32649 476.19138Q138.0958 483.5859 136.71155 500.87604Q135.55801 516.10004 135.55801 525.77814Q135.55801 531.75903 131.05922 535.89124Q126.56043 540.0235 119.86993 540.0235Q113.17942 540.0235 108.68063 535.89124Q104.18185 531.75903 104.18185 525.77814Q104.18185 514.7951 106.20053 492.9378Q108.219215 471.08047 108.219215 460.09744Q108.219215 446.17834 108.91134 418.17703Q109.60346 390.17572 109.60346 376.25662Q109.60346 370.2758 114.10225 366.14355Q118.601036 362.01132 125.29154 362.01132Q131.98206 362.01132 136.48083 366.14355Q140.97963 370.2758 140.97963 376.25662Q140.97963 384.5211 140.34518 401.1044Q139.71074 417.68768 139.71074 425.95215Q139.71074 428.67072 138.90326 436.39148Q138.21115 443.5685 138.32649 447.3745L182.62227 439.545Q208.57681 435.1953 227.37946 434.54285Q227.84087 427.25708 228.87904 395.3954Q229.10976 387.0222 234.30066 376.1479Q240.76047 362.77252 248.95056 362.77252Q255.0643 362.77252 259.7938 366.57852Q264.86935 370.71075 264.86935 376.9091Q264.86935 378.54022 264.40796 380.1714ZM342.61768 536.0Q315.04816 536.0 297.5144 523.60333Q278.135 509.9017 278.135 484.99957Q278.135 457.4876 293.47705 438.45758Q310.54938 417.36145 339.5031 417.36145Q359.57465 417.36145 372.8403 423.45108Q390.2587 431.49805 390.2587 448.46194Q390.2587 460.42368 376.0702 469.6668Q369.61038 473.90778 350.11563 482.0635L311.2415 498.2662Q316.77847 503.92084 324.6225 506.74814Q332.46655 509.57547 342.61768 509.57547Q358.07504 509.57547 368.80292 503.5946Q378.37726 498.2662 384.14496 498.2662Q396.14172 498.2662 396.14172 509.24924Q396.14172 521.64594 376.8777 529.4754Q360.72818 536.0 342.61768 536.0ZM339.5031 443.67725Q328.77524 443.67725 321.1619 450.4193Q313.54855 457.16138 308.93442 470.6455Q321.96936 465.3171 334.88898 460.09744Q350.4617 453.4641 359.69 447.80948Q351.9613 443.67725 339.5031 443.67725ZM516.10944 538.17487Q510.80316 538.17487 499.2678 527.30054Q488.65527 532.08527 480.58054 534.532Q472.50577 536.9787 466.85345 536.9787Q439.05325 536.9787 425.15314 522.95087Q411.25302 508.923 411.25302 480.97607Q411.25302 454.76904 431.78598 436.11963Q452.3189 417.4702 480.92657 417.4702Q491.88516 417.4702 506.30438 423.34232Q523.7228 430.4106 523.7228 439.7625Q523.7228 443.67725 521.06964 446.6133Q519.9161 450.963 519.2817 457.54196Q518.6472 464.1209 518.6472 472.9291Q518.6472 493.699 521.7617 502.8334Q522.1078 503.8121 527.068 514.14264Q531.5668 523.49457 531.5668 524.7995Q531.5668 530.56287 526.89496 534.36884Q522.22314 538.17487 516.10944 538.17487ZM487.50174 463.5772Q487.50174 460.09744 488.02084 455.5846Q488.53992 451.07178 489.5781 445.52588Q487.27103 444.43845 485.48306 443.9491Q483.69507 443.45978 482.42618 443.45978Q466.7381 443.45978 454.97205 455.0409Q443.20596 466.622 443.20596 481.846Q443.20596 496.41757 448.74295 503.75772Q454.2799 511.09787 465.35385 511.09787Q472.50577 511.09787 478.9079 508.86865Q485.31003 506.6394 490.96234 502.2897Q487.50174 476.40887 487.50174 463.5772ZM632.27045 421.71118Q633.7701 384.62985 635.84644 370.49326Q637.80743 357.6616 650.8424 357.6616Q657.64825 357.6616 661.80096 361.79382Q665.95374 365.92606 665.95374 371.90692Q665.95374 387.67465 663.3583 418.88385Q660.7628 450.09308 660.7628 465.8608Q660.7628 504.3558 663.41595 517.40497Q663.76196 519.14484 663.76196 520.5585Q663.76196 526.53937 659.1478 530.3997Q654.5337 534.26013 648.42 534.26013Q639.8838 534.26013 635.7311 527.08307Q627.887 531.54156 619.46625 533.77075Q611.0454 536.0 602.04785 536.0Q576.2086 536.0 559.1363 520.44977Q541.7179 504.5733 541.7179 479.99738Q541.7179 450.74554 559.25165 432.7486Q576.7854 414.75162 605.047 414.75162Q613.69855 414.75162 620.5044 416.49152Q627.31024 418.2314 632.27045 421.71118ZM629.9634 455.9652Q626.15674 449.1144 620.04297 445.74338Q613.92926 442.37234 605.5084 442.37234Q588.4361 442.37234 579.89996 451.66986Q571.3638 460.96738 571.3638 479.5624Q571.3638 491.30664 580.59204 499.67987Q589.8204 508.05307 602.04785 508.05307Q610.93005 508.05307 615.5442 506.0957Q618.65875 504.79077 626.15674 499.13614Q628.11774 497.61374 629.9634 495.7651Q629.73267 490.54544 629.9634 455.9652ZM744.7402 536.0Q717.1707 536.0 699.63696 523.60333Q680.25757 509.9017 680.25757 484.99957Q680.25757 457.4876 695.59955 438.45758Q712.6719 417.36145 741.6257 417.36145Q761.69714 417.36145 774.9628 423.45108Q792.3812 431.49805 792.3812 448.46194Q792.3812 460.42368 778.19275 469.6668Q771.7329 473.90778 752.23816 482.0635L713.364 498.2662Q718.901 503.92084 726.74506 506.74814Q734.58905 509.57547 744.7402 509.57547Q760.1976 509.57547 770.9255 503.5946Q780.4998 498.2662 786.26746 498.2662Q798.2642 498.2662 798.2642 509.24924Q798.2642 521.64594 779.0002 529.4754Q762.8507 536.0 744.7402 536.0ZM741.6257 443.67725Q730.89777 443.67725 723.2844 450.4193Q715.6711 457.16138 711.05695 470.6455Q724.0919 465.3171 737.0115 460.09744Q752.5842 453.4641 761.8125 447.80948Q754.0838 443.67725 741.6257 443.67725ZM915.3481 452.59418Q914.30994 469.23184 899.31396 469.23184Q884.7794 469.23184 884.7794 455.09525L884.20264 444.1122Q858.2481 448.02698 847.0588 469.23184L847.17413 523.9295Q847.17413 530.12787 842.67535 534.20575Q838.1766 538.28357 831.2554 538.28357Q824.10345 538.28357 820.1814 533.9339Q816.4901 530.01917 816.4901 523.9295L816.4901 452.7029Q816.4901 449.33188 816.7208 442.6442Q816.95154 435.9565 816.95154 432.58548Q816.95154 426.49588 820.81586 422.418Q824.68024 418.34015 831.83215 418.34015Q844.63635 418.34015 847.0588 430.73685Q867.4764 416.38278 892.39276 416.38278Q915.46344 416.38278 915.46344 445.30838Q915.46344 450.85428 915.3481 452.59418Z" fill-rule="nonzero" fill="#ffffff" stroke="#ea9999" stroke-width="8.0" stroke-linejoin="round" stroke-linecap="butt"></path></svg>

